<svg width="12" height="252" viewBox="0 0 12 252" fill="none" xmlns="http://www.w3.org/2000/svg">
<rect x="11.5" y="0.5" width="11" height="11" transform="rotate(90 11.5 0.5)" stroke="#D9D9D9" stroke-opacity="0.4"/>
<path d="M8.08203 19.1953L10.543 19.1953L10.543 24.0586L9.31836 24.0586L2 21.1641L2 19.7988L9.31836 22.6875L9.31836 20.4199L8.08203 20.4199L8.08203 19.1953ZM5.92578 24.9492L10.543 24.9492L10.543 29.502L9.31836 29.502L9.31836 26.1035L7.38477 26.1035C7.69727 26.502 7.85352 26.957 7.85352 27.4687C7.8457 27.7969 7.78711 28.0977 7.67773 28.3711C7.55664 28.6289 7.4082 28.8379 7.23242 28.998C6.99805 29.2363 6.72656 29.4082 6.41797 29.5137C6.25 29.5684 6.04492 29.6074 5.80273 29.6309C5.55664 29.6543 5.25391 29.666 4.89453 29.666C4.33984 29.666 3.91406 29.627 3.61719 29.5488C3.32422 29.4668 3.06445 29.3301 2.83789 29.1387C2.61523 28.9707 2.41211 28.7266 2.22851 28.4062C2.03711 28.0937 1.9375 27.7227 1.92969 27.293C1.92969 26.7148 2.10156 26.1855 2.44531 25.7051C2.79687 25.2168 3.36523 24.9141 4.15039 24.7969L4.15039 26.0215C3.49414 26.1543 3.16211 26.5625 3.1543 27.2461C3.1543 27.5391 3.21289 27.7734 3.33008 27.9492C3.44336 28.1172 3.5918 28.2344 3.77539 28.3008C3.95898 28.3711 4.1582 28.4141 4.37305 28.4297C4.58398 28.4375 4.78906 28.4414 4.98828 28.4414C5.47656 28.4492 5.87305 28.373 6.17773 28.2129C6.32227 28.127 6.4375 28 6.52344 27.832C6.59375 27.6641 6.62891 27.4551 6.62891 27.2051C6.62891 26.9824 6.57812 26.7793 6.47656 26.5957C6.37109 26.4121 6.1875 26.248 5.92578 26.1035L5.92578 24.9492ZM9.24805 32.4434L8.35742 31.2305L9.6582 31.2305L10.543 32.4434L10.543 33.668L2 33.668L2 32.4434L9.24805 32.4434ZM2 36.2695L3.1543 36.2695L7.32617 39.6035C7.49414 39.7324 7.65039 39.8203 7.79492 39.8672C7.93164 39.8984 8.06055 39.9141 8.18164 39.9141C8.50195 39.9141 8.78125 39.8145 9.01953 39.6152C9.25781 39.4082 9.38086 39.1152 9.38867 38.7363C9.38867 38.4004 9.28125 38.1211 9.06641 37.8984C8.85156 37.668 8.54883 37.5312 8.1582 37.4883L8.1582 36.2695C8.86914 36.3008 9.45703 36.5391 9.92187 36.9844C10.375 37.4336 10.6055 37.9863 10.6133 38.6426C10.6055 39.377 10.3711 39.9727 9.91016 40.4297C9.45312 40.8945 8.87305 41.1309 8.16992 41.1387C7.60742 41.1387 7.10742 40.9668 6.66992 40.623L3.22461 37.875L3.22461 41.1387L2 41.1387L2 36.2695ZM2 42.0352L3.1543 42.0352L7.32617 45.3691C7.49414 45.498 7.65039 45.5859 7.79492 45.6328C7.93164 45.6641 8.06055 45.6797 8.18164 45.6797C8.50195 45.6797 8.78125 45.5801 9.01953 45.3809C9.25781 45.1738 9.38086 44.8809 9.38867 44.502C9.38867 44.166 9.28125 43.8867 9.0664 43.6641C8.85156 43.4336 8.54883 43.2969 8.1582 43.2539L8.1582 42.0352C8.86914 42.0664 9.45703 42.3047 9.92187 42.75C10.375 43.1992 10.6055 43.752 10.6133 44.4082C10.6055 45.1426 10.3711 45.7383 9.91015 46.1953C9.45312 46.6602 8.87305 46.8965 8.16992 46.9043C7.60742 46.9043 7.10742 46.7324 6.66992 46.3887L3.22461 43.6406L3.22461 46.9043L2 46.9043L2 42.0352Z" fill="white" fill-opacity="0.2"/>
<rect x="11.5" y="100.5" width="11" height="11" transform="rotate(90 11.5 100.5)" stroke="#D9D9D9" stroke-opacity="0.4"/>
<path d="M8.08203 119.195L10.543 119.195L10.543 124.059L9.31836 124.059L2 121.164L2 119.799L9.31836 122.687L9.31836 120.42L8.08203 120.42L8.08203 119.195ZM5.92578 124.949L10.543 124.949L10.543 129.502L9.31836 129.502L9.31836 126.104L7.38477 126.104C7.69727 126.502 7.85352 126.957 7.85352 127.469C7.8457 127.797 7.78711 128.098 7.67773 128.371C7.55664 128.629 7.4082 128.838 7.23242 128.998C6.99805 129.236 6.72656 129.408 6.41797 129.514C6.25 129.568 6.04492 129.607 5.80273 129.631C5.55664 129.654 5.25391 129.666 4.89453 129.666C4.33984 129.666 3.91406 129.627 3.61719 129.549C3.32422 129.467 3.06445 129.33 2.83789 129.139C2.61523 128.971 2.41211 128.727 2.22851 128.406C2.03711 128.094 1.9375 127.723 1.92969 127.293C1.92969 126.715 2.10156 126.186 2.44531 125.705C2.79687 125.217 3.36523 124.914 4.15039 124.797L4.15039 126.021C3.49414 126.154 3.16211 126.562 3.1543 127.246C3.1543 127.539 3.21289 127.773 3.33008 127.949C3.44336 128.117 3.5918 128.234 3.77539 128.301C3.95898 128.371 4.1582 128.414 4.37305 128.43C4.58398 128.437 4.78906 128.441 4.98828 128.441C5.47656 128.449 5.87305 128.373 6.17773 128.213C6.32227 128.127 6.4375 128 6.52344 127.832C6.59375 127.664 6.62891 127.455 6.62891 127.205C6.62891 126.982 6.57812 126.779 6.47656 126.596C6.37109 126.412 6.1875 126.248 5.92578 126.104L5.92578 124.949ZM9.24805 132.443L8.35742 131.23L9.6582 131.23L10.543 132.443L10.543 133.668L2 133.668L2 132.443L9.24805 132.443ZM2 136.27L3.1543 136.27L7.32617 139.604C7.49414 139.732 7.65039 139.82 7.79492 139.867C7.93164 139.898 8.06055 139.914 8.18164 139.914C8.50195 139.914 8.78125 139.814 9.01953 139.615C9.25781 139.408 9.38086 139.115 9.38867 138.736C9.38867 138.4 9.28125 138.121 9.06641 137.898C8.85156 137.668 8.54883 137.531 8.1582 137.488L8.1582 136.27C8.86914 136.301 9.45703 136.539 9.92187 136.984C10.375 137.434 10.6055 137.986 10.6133 138.643C10.6055 139.377 10.3711 139.973 9.91016 140.43C9.45312 140.895 8.87305 141.131 8.16992 141.139C7.60742 141.139 7.10742 140.967 6.66992 140.623L3.22461 137.875L3.22461 141.139L2 141.139L2 136.27ZM2 142.035L3.1543 142.035L7.32617 145.369C7.49414 145.498 7.65039 145.586 7.79492 145.633C7.93164 145.664 8.06055 145.68 8.18164 145.68C8.50195 145.68 8.78125 145.58 9.01953 145.381C9.25781 145.174 9.38086 144.881 9.38867 144.502C9.38867 144.166 9.28125 143.887 9.0664 143.664C8.85156 143.434 8.54883 143.297 8.1582 143.254L8.1582 142.035C8.86914 142.066 9.45703 142.305 9.92187 142.75C10.375 143.199 10.6055 143.752 10.6133 144.408C10.6055 145.143 10.3711 145.738 9.91015 146.195C9.45312 146.66 8.87305 146.896 8.16992 146.904C7.60742 146.904 7.10742 146.732 6.66992 146.389L3.22461 143.641L3.22461 146.904L2 146.904L2 142.035Z" fill="white" fill-opacity="0.2"/>
<rect x="11.5" y="200.5" width="11" height="11" transform="rotate(90 11.5 200.5)" stroke="#D9D9D9" stroke-opacity="0.4"/>
<path d="M8.08203 219.195L10.543 219.195L10.543 224.059L9.31836 224.059L2 221.164L2 219.799L9.31836 222.687L9.31836 220.42L8.08203 220.42L8.08203 219.195ZM5.92578 224.949L10.543 224.949L10.543 229.502L9.31836 229.502L9.31836 226.104L7.38477 226.104C7.69727 226.502 7.85352 226.957 7.85352 227.469C7.8457 227.797 7.78711 228.098 7.67773 228.371C7.55664 228.629 7.4082 228.838 7.23242 228.998C6.99805 229.236 6.72656 229.408 6.41797 229.514C6.25 229.568 6.04492 229.607 5.80273 229.631C5.55664 229.654 5.25391 229.666 4.89453 229.666C4.33984 229.666 3.91406 229.627 3.61719 229.549C3.32422 229.467 3.06445 229.33 2.83789 229.139C2.61523 228.971 2.41211 228.727 2.22851 228.406C2.03711 228.094 1.9375 227.723 1.92969 227.293C1.92969 226.715 2.10156 226.186 2.44531 225.705C2.79687 225.217 3.36523 224.914 4.15039 224.797L4.15039 226.021C3.49414 226.154 3.16211 226.562 3.1543 227.246C3.1543 227.539 3.21289 227.773 3.33008 227.949C3.44336 228.117 3.5918 228.234 3.77539 228.301C3.95898 228.371 4.1582 228.414 4.37305 228.43C4.58398 228.437 4.78906 228.441 4.98828 228.441C5.47656 228.449 5.87305 228.373 6.17773 228.213C6.32227 228.127 6.4375 228 6.52344 227.832C6.59375 227.664 6.62891 227.455 6.62891 227.205C6.62891 226.982 6.57812 226.779 6.47656 226.596C6.37109 226.412 6.1875 226.248 5.92578 226.104L5.92578 224.949ZM9.24805 232.443L8.35742 231.23L9.6582 231.23L10.543 232.443L10.543 233.668L2 233.668L2 232.443L9.24805 232.443ZM2 236.27L3.1543 236.27L7.32617 239.604C7.49414 239.732 7.65039 239.82 7.79492 239.867C7.93164 239.898 8.06055 239.914 8.18164 239.914C8.50195 239.914 8.78125 239.814 9.01953 239.615C9.25781 239.408 9.38086 239.115 9.38867 238.736C9.38867 238.4 9.28125 238.121 9.06641 237.898C8.85156 237.668 8.54883 237.531 8.1582 237.488L8.1582 236.27C8.86914 236.301 9.45703 236.539 9.92187 236.984C10.375 237.434 10.6055 237.986 10.6133 238.643C10.6055 239.377 10.3711 239.973 9.91016 240.43C9.45312 240.895 8.87305 241.131 8.16992 241.139C7.60742 241.139 7.10742 240.967 6.66992 240.623L3.22461 237.875L3.22461 241.139L2 241.139L2 236.27ZM2 242.035L3.1543 242.035L7.32617 245.369C7.49414 245.498 7.65039 245.586 7.79492 245.633C7.93164 245.664 8.06055 245.68 8.18164 245.68C8.50195 245.68 8.78125 245.58 9.01953 245.381C9.25781 245.174 9.38086 244.881 9.38867 244.502C9.38867 244.166 9.28125 243.887 9.0664 243.664C8.85156 243.434 8.54883 243.297 8.1582 243.254L8.1582 242.035C8.86914 242.066 9.45703 242.305 9.92187 242.75C10.375 243.199 10.6055 243.752 10.6133 244.408C10.6055 245.143 10.3711 245.738 9.91015 246.195C9.45312 246.66 8.87305 246.896 8.16992 246.904C7.60742 246.904 7.10742 246.732 6.66992 246.389L3.22461 243.641L3.22461 246.904L2 246.904L2 242.035Z" fill="white" fill-opacity="0.2"/>
</svg>
