<svg width="111" height="108" viewBox="0 0 111 108" fill="none" xmlns="http://www.w3.org/2000/svg">
<g id="Group 427318922">
<g id="Group 427318921">
<g id="Group 427318920">
<circle id="Ellipse 955" cx="54.0843" cy="51.1244" r="41.7984" stroke="white" stroke-width="2"/>
<path id="Ellipse 957" d="M103.516 51.1227C103.516 78.423 81.385 100.554 54.0848 100.554C26.7845 100.554 4.65332 78.423 4.65332 51.1227C4.65332 23.8224 26.7845 1.69116 54.0848 1.69116C81.385 1.69116 103.516 23.8224 103.516 51.1227Z" stroke="#A0A0A0"/>
<path id="Ellipse 958" d="M55.2737 2.37939C81.5369 2.37939 102.828 24.1201 102.828 50.9387C102.828 72.9361 88.5035 91.5174 68.8605 97.487" stroke="#FFBC43" stroke-width="4"/>
</g>
</g>
<path id="Ellipse 956" d="M110.5 51.1234C110.5 58.4765 109.08 65.4979 106.498 71.9282C98.2464 92.4841 78.1304 106.999 54.6242 106.999M0.586182 36.8572C3.56503 25.5435 10.0027 15.633 18.7002 8.32495" stroke="#A0A0A0" stroke-opacity="0.4"/>
<path id="Vector" d="M11.8247 78.2119C11.7062 77.9749 11.5482 77.7774 11.4297 77.5404L15.8929 75.0125C16.0114 75.21 16.1299 75.4075 16.2484 75.605L11.8247 78.2119ZM101.168 76.1975L96.6259 73.7881C96.7444 73.5906 96.8234 73.3931 96.9419 73.1562L101.524 75.4865C101.405 75.7235 101.287 75.9605 101.168 76.1975ZM8.15142 70.5493C8.07242 70.3123 7.95392 70.0754 7.87493 69.8384L12.6936 68.061C12.7726 68.298 12.8516 68.4954 12.9306 68.6929L8.15142 70.5493ZM104.525 68.377L99.6672 66.7576C99.7462 66.5206 99.8252 66.3231 99.8647 66.0861L104.762 67.6265C104.683 67.903 104.604 68.14 104.525 68.377ZM5.78156 62.4128C5.74207 62.1759 5.66309 61.8994 5.62359 61.6624L10.6793 60.7144C10.7188 60.9514 10.7583 61.1489 10.7978 61.3859L5.78156 62.4128ZM106.5 60.1615L101.445 59.3715C101.484 59.1345 101.524 58.8975 101.563 58.7001L106.658 59.411C106.579 59.648 106.54 59.885 106.5 60.1615ZM4.79413 53.9998C4.79413 53.7629 4.79414 53.4864 4.75464 53.2494L9.88932 53.1704C9.88932 53.4074 9.88932 53.6444 9.88932 53.8814L4.79413 53.9998ZM101.958 51.7485C101.958 51.5115 101.958 51.2745 101.958 51.0375L107.093 50.919C107.093 51.156 107.093 51.4325 107.093 51.6695L101.958 51.7485ZM10.2843 46.2188L5.1891 45.5474C5.2286 45.3104 5.26809 45.0339 5.30759 44.7969L10.3633 45.5474C10.3633 45.7844 10.3238 45.9819 10.2843 46.2188ZM101.247 44.165C101.208 43.928 101.168 43.691 101.129 43.4935L106.145 42.5061C106.184 42.7431 106.224 43.0195 106.303 43.2565L101.247 44.165ZM11.9037 38.7933L7.006 37.2924C7.085 37.0554 7.16398 36.8184 7.24298 36.542L12.1407 38.1219C12.0617 38.3588 11.9827 38.5563 11.9037 38.7933ZM99.3117 36.8184C99.2327 36.5814 99.1537 36.3839 99.0747 36.1865L103.893 34.3696C103.972 34.6066 104.091 34.8436 104.17 35.0805L99.3117 36.8184ZM14.7475 31.7232L10.1658 29.4324C10.2843 29.1954 10.4028 28.9584 10.5213 28.7609L15.0635 31.1308C14.945 31.2888 14.866 31.4863 14.7475 31.7232ZM96.1519 29.8669C96.0334 29.6694 95.9149 29.4719 95.7964 29.2744L100.26 26.7071C100.378 26.944 100.497 27.1415 100.655 27.3785L96.1519 29.8669ZM18.6973 25.2062L14.55 22.2043C14.708 22.0068 14.866 21.7699 15.024 21.5724L19.1317 24.6532C18.9737 24.8112 18.8553 25.0087 18.6973 25.2062ZM91.8862 23.5472C91.7282 23.3498 91.6097 23.1918 91.4517 22.9943L95.4015 19.716C95.5595 19.9135 95.7175 20.111 95.8754 20.3084L91.8862 23.5472ZM23.7135 19.4395L20.1192 15.7662C20.3167 15.5687 20.4747 15.4108 20.6721 15.2133L24.2269 18.926C24.0294 19.084 23.8714 19.2815 23.7135 19.4395ZM86.6725 18.0176C86.5145 17.8596 86.317 17.7016 86.159 17.5436L89.5163 13.6729C89.7138 13.8309 89.9113 14.0283 90.1088 14.1863L86.6725 18.0176ZM29.5591 14.5418L26.6363 10.3551C26.8337 10.1971 27.0707 10.0786 27.2682 9.9206L30.1515 14.1468C29.9541 14.3048 29.7566 14.4233 29.5591 14.5418ZM80.5899 13.3964C80.3924 13.2779 80.1949 13.1594 79.9974 13.0409L82.6833 8.65667C82.9202 8.77516 83.1177 8.93315 83.3547 9.05165L80.5899 13.3964ZM36.1552 10.7105L33.9433 6.08933C34.1803 5.97084 34.4173 5.85235 34.6543 5.77336L36.7871 10.4341C36.5501 10.5131 36.3527 10.6316 36.1552 10.7105ZM73.8358 9.8416C73.6383 9.7626 73.4013 9.6441 73.2039 9.56511L75.1392 4.82541C75.3762 4.9044 75.6132 5.0229 75.8502 5.10189L73.8358 9.8416ZM43.2647 8.02472L41.8428 3.08753C42.0798 3.00853 42.3563 2.92954 42.5933 2.89004L43.9362 7.82723C43.6992 7.90623 43.5017 7.94573 43.2647 8.02472ZM66.6078 7.47175C66.3708 7.43225 66.1733 7.35327 65.9363 7.31377L67.0422 2.29758C67.2792 2.33707 67.5557 2.41605 67.7927 2.45555L66.6078 7.47175ZM50.7297 6.52382L50.1768 1.42863C50.4138 1.38913 50.6903 1.38912 50.9272 1.34963L51.4407 6.44482C51.2037 6.48432 50.9667 6.52382 50.7297 6.52382ZM59.0637 6.36582C58.8268 6.36582 58.5898 6.32633 58.3528 6.32633L58.6293 1.19165C58.8662 1.19165 59.1427 1.23114 59.3797 1.23114L59.0637 6.36582Z" fill="#171C42"/>
</g>
</svg>
